<svg width="993.8" height="993" xmlns="http://www.w3.org/2000/svg" style="vector-effect: non-scaling-stroke;" stroke="null" xml:space="preserve" version="1.1">

 <g stroke="null">
  <title stroke="null">Layer 1</title>
  <circle stroke="null" id="svg_1" fill="#F7931A" r="497.1" cy="496.6" cx="496.2" class="st0"/>
  <path id="svg_2" fill="#FFFFFF" d="m712.9,272.4c38.9,0 70.5,-31.6 70.5,-70.5s-31.6,-70.5 -70.5,-70.5s-70.5,31.6 -70.5,70.5c0,13 3.5,25.1 9.6,35.6l-150.8,165.5c-17.6,-7.6 -36.5,-12.8 -56.3,-15.1l0,-88.8c21.5,-9.5 36.5,-31.1 36.5,-56.1c0,-33.9 -27.5,-61.4 -61.4,-61.4c-33.9,0 -61.4,27.5 -61.4,61.4c0,25.3 15.3,47.1 37.2,56.4l0,88.5c-100.3,12.3 -178,97.8 -178,201.4c0,112.1 90.8,202.9 202.9,202.9c58.4,0 111,-24.7 148,-64.1l43.1,43.1c-2.5,6.6 -3.8,13.8 -3.8,21.3c0,34 27.6,61.6 61.6,61.6c34,0 61.6,-27.6 61.6,-61.6s-27.6,-61.6 -61.6,-61.6c-7.9,0 -15.4,1.5 -22.4,4.2l-48.4,-48.4c15.8,-28.9 24.9,-62.1 24.9,-97.4c0,-65.5 -31,-123.7 -79.1,-160.8l145.6,-159.9c7.2,2.5 14.8,3.8 22.7,3.8z" class="st1"/>
  <g stroke="null">
   <metadata stroke="null">Created by potrace 1.15, written by Peter Selinger 2001-2017</metadata>
   <g stroke="null" fill="#000000" transform="translate(0 640) scale(0.1 -0.1)">
    <path stroke="null" d="m3993.87117,1805.78453c-208.5548,-24.09297 -303.42088,-45.17432 -463.03683,-102.39514c-148.32237,-53.45628 -343.32487,-167.145 -496.91757,-289.11568c-132.51135,-105.40676 -339.56034,-323.74933 -579.73717,-609.10048c-297.39764,-353.86554 -460.77811,-513.48149 -642.22831,-625.66439c-167.145,-103.90095 -333.5371,-166.3921 -539.83318,-204.03737c-106.15966,-18.82264 -316.97318,-17.31682 -418.61541,3.76453c-194.2496,39.15108 -313.96156,105.40676 -361.3946,198.76703c-57.22081,112.93581 -52.70338,253.72912 11.29358,347.08939c45.92723,67.00858 140.04041,125.7352 201.02574,125.7352c63.99696,0 112.18291,-59.47953 135.52297,-167.145c7.52905,-32.37493 16.56392,-58.72662 20.32845,-58.72662c13.5523,0 0,157.35723 -18.06973,214.57804c-57.97372,186.72054 -192.74378,225.87162 -411.83926,119.71196c-118.20615,-57.22081 -190.48507,-148.32237 -228.88324,-286.85696c-21.08135,-76.04345 -22.58716,-254.48203 -3.01162,-339.56034c84.32541,-377.20561 366.66493,-666.32129 810.87913,-831.96048c464.54264,-173.92115 1050.30305,-184.46183 1866.45251,-34.63365c212.31933,39.15108 348.5952,72.27892 523.26926,127.99392c493.90595,158.11014 972.00088,406.56892 1312.31413,682.1323c86.58412,70.0202 213.07223,196.50831 253.72912,252.97622c16.56392,23.34007 32.37493,42.1627 34.63365,42.91561c2.25872,0 16.56392,-18.06973 32.37493,-40.65689c36.13946,-52.70338 185.96764,-200.27284 275.56338,-271.79885c396.78115,-316.22027 1021.69264,-613.61791 1554.74967,-740.85892c203.28446,-48.18595 562.42034,-107.66547 794.31521,-131.75845c457.01358,-47.43304 857.55926,-27.10459 1168.50919,60.23243c533.80994,149.07527 879.39352,463.78973 974.2596,885.41676c19.57554,85.07831 18.06973,263.51689 -3.01162,339.56034c-38.39818,138.5346 -110.6771,229.63615 -228.88324,286.85696c-91.85446,44.42142 -152.8398,60.23243 -220.60128,55.715c-59.47953,-3.76453 -87.33703,-15.81101 -123.47649,-52.70338c-52.70338,-53.45628 -82.06669,-138.5346 -88.84284,-255.98784c-5.27034,-97.1248 4.51743,-106.91257 23.34007,-22.58716c31.62203,146.81655 102.39514,196.50831 207.80189,147.56946c173.16824,-80.56088 231.89487,-280.83372 134.77007,-463.03683c-67.00858,-125.7352 -287.60987,-204.79027 -571.45521,-205.54318c-265.77561,0 -508.21115,70.77311 -744.62345,217.58966c-166.3921,103.14804 -352.35973,283.09243 -618.13534,598.5598c-403.5573,478.84784 -593.28946,658.79223 -851.53602,807.1146c-394.52243,227.37743 -883.91095,286.85696 -1252.8346,151.33399c-148.32237,-54.96209 -274.05757,-137.78169 -387.74629,-255.98784l-75.29054,-77.54926l-75.29054,77.54926c-212.31933,220.60128 -493.90595,332.03129 -828.19595,327.51385c-43.66851,0 -88.84284,-2.25872 -101.64223,-3.01162z"/>
   </g>
  </g>
 </g>
</svg>